<svg xmlns="http://www.w3.org/2000/svg" viewBox="0 0 71.58 70.97"><defs><style>.cls-1,.cls-3{fill:none;}.cls-1,.cls-2,.cls-3{stroke:#39ff14;stroke-miterlimit:10;}.cls-1{stroke-linecap:round;}.cls-2{fill:#baf8e4;}.cls-2,.cls-3{stroke-width:0.75px;}</style></defs><g id="Layer_2" data-name="Layer 2"><g id="Layer_1-2" data-name="Layer 1"><rect class="cls-1" x="6.08" y="5.47" width="59.42" height="59.42"/><circle class="cls-2" cx="6.08" cy="6.08" r="5.71"/><circle class="cls-2" cx="35.79" cy="6.08" r="5.71"/><circle class="cls-2" cx="65.5" cy="6.08" r="5.71"/><circle class="cls-2" cx="6.08" cy="34.47" r="5.71"/><circle class="cls-2" cx="65.5" cy="34.47" r="5.71"/><circle class="cls-2" cx="6.08" cy="64.89" r="5.71"/><circle class="cls-2" cx="35.79" cy="64.89" r="5.71"/><circle class="cls-2" cx="65.5" cy="64.89" r="5.71"/><line class="cls-2" x1="15.57" y1="12.32" x2="15.57" y2="29.74"/><line class="cls-2" x1="18.82" y1="16.71" x2="18.82" y2="25.35"/><line class="cls-2" x1="57.95" y1="41.09" x2="57.95" y2="58.51"/><line class="cls-2" x1="54.7" y1="45.48" x2="54.7" y2="54.12"/><path class="cls-3" d="M51.12,41.09c0,.84-2.33,1.47-2.47,2.27s1.83,2.21,1.55,3-2.69.57-3.1,1.28,1,2.7.43,3.33-2.71-.38-3.35.15,0,2.85-.72,3.27-2.42-1.29-3.2-1-1,2.68-1.81,2.82-1.82-2-2.66-2-1.86,2.18-2.66,2-1-2.54-1.81-2.82-2.48,1.41-3.2,1S28,51.63,27.4,51.1s-2.82.48-3.35-.15.85-2.61.43-3.33-2.81-.5-3.1-1.28,1.69-2.15,1.55-3-2.47-1.43-2.47-2.27,2.33-1.47,2.47-2.27-1.83-2.2-1.55-3,2.69-.58,3.1-1.29-1-2.69-.43-3.32,2.72.38,3.35-.15,0-2.86.73-3.27,2.41,1.28,3.19,1,1-2.68,1.81-2.83,1.82,2,2.66,2,1.86-2.18,2.66-2,1,2.55,1.81,2.83,2.49-1.42,3.2-1,.09,2.74.73,3.27,2.81-.48,3.35.15-.85,2.61-.44,3.32,2.82.51,3.1,1.29-1.69,2.15-1.55,3S51.12,40.25,51.12,41.09Z"/><circle class="cls-3" cx="35.79" cy="41.09" r="9.55"/><path class="cls-3" d="M58.51,19.33c0,.43-1.17.74-1.24,1.14s.92,1.11.78,1.49-1.35.29-1.56.65.49,1.35.22,1.67-1.36-.19-1.68.07,0,1.44-.36,1.64-1.22-.64-1.61-.5-.49,1.35-.9,1.42-.92-1-1.34-1-.93,1.1-1.34,1-.52-1.28-.9-1.42-1.25.71-1.61.5,0-1.37-.36-1.64-1.41.24-1.68-.07.42-1.31.22-1.67-1.42-.25-1.56-.65.85-1.07.78-1.49-1.24-.71-1.24-1.14,1.17-.73,1.24-1.14-.92-1.1-.78-1.49,1.35-.29,1.56-.64-.49-1.35-.22-1.67,1.36.19,1.68-.08,0-1.43.36-1.64,1.22.65,1.61.51.49-1.35.91-1.42.91,1,1.33,1,.93-1.09,1.34-1,.52,1.28.9,1.42,1.25-.71,1.61-.51,0,1.38.36,1.65,1.41-.25,1.68.07-.42,1.31-.22,1.67,1.42.25,1.56.64-.85,1.08-.78,1.5S58.51,18.91,58.51,19.33Z"/><circle class="cls-3" cx="50.82" cy="19.33" r="4.79"/></g></g></svg>