<svg xmlns="http://www.w3.org/2000/svg" viewBox="0 0 337.52 296.48"><defs><style>.cls-1{fill:none;stroke:#39ff14;stroke-miterlimit:10;}.cls-2{fill:#bae3db;opacity:0.47;}</style></defs><g id="Layer_2" data-name="Layer 2"><g id="Layer_1-2" data-name="Layer 1"><rect class="cls-1" x="0.5" y="0.5" width="336.52" height="241.55" rx="12"/><line class="cls-1" x1="0.5" y1="203.34" x2="337.02" y2="203.34"/><path class="cls-1" d="M205.92,242.05a108.83,108.83,0,0,0,.77,19.87c.38,2.87.85,5.58,1.39,8.13a14.23,14.23,0,0,0,6.43,9.16L228.63,288v5.36A2.65,2.65,0,0,1,226,296H111.27a2.38,2.38,0,0,1-2.38-2.38v-5.91c5.64-2.92,11.28-6.84,16.92-9.77A10,10,0,0,0,131,271.4c.75-3.15,1.42-6.58,1.94-10.25a111.89,111.89,0,0,0,1-19.1"/><line class="cls-1" x1="228.63" y1="287.98" x2="108.89" y2="287.69"/><path class="cls-2" d="M325.15.5H12.63a12,12,0,0,0-12,12V230.05a12,12,0,0,0,12,12H135.05a111.89,111.89,0,0,1-1,19.1c-.52,3.67-1.19,7.1-1.94,10.25a10,10,0,0,1-5.14,6.52c-5.64,2.93-11.28,6.85-16.92,9.77v5.91A2.37,2.37,0,0,0,112.4,296H227.11a2.65,2.65,0,0,0,2.65-2.64V288l-14.12-8.77a14.25,14.25,0,0,1-6.43-9.16c-.54-2.55-1-5.26-1.39-8.13a108.83,108.83,0,0,1-.77-19.87h118.1a12,12,0,0,0,12-12V12.5A12,12,0,0,0,325.15.5Z"/></g></g></svg>