<svg xmlns="http://www.w3.org/2000/svg" viewBox="0 0 356.85 373.56"><defs><style>.cls-1{fill:none;stroke:#43e695;stroke-miterlimit:10;stroke-width:2px;}</style></defs><g id="Layer_2" data-name="Layer 2"><g id="Layer_1-2" data-name="Layer 1"><path class="cls-1" d="M351.85,279.2,126.91,135.9,7.08,210.3a11.11,11.11,0,0,0-6,11c.68,5.51,5.58,8.11,6,8.32,65.51,44.83,138,100.18,207,140.26a18.52,18.52,0,0,0,19.1,0c35.55-23.65,77.51-59,118.71-87.61Z"/><path class="cls-1" d="M351.85,279.2l4-144.73a10.82,10.82,0,0,0-5.39-9.36L139.05,2.1a8.1,8.1,0,0,0-12.16,7l0,126.8Z"/><path class="cls-1" d="M325.62,280.22,129.79,162.5a7.42,7.42,0,0,0-7.34.05L57.64,200.16c-1.48.82-2.85,3.74-1.49,4.59L245.62,328.08a10.06,10.06,0,0,0,10.15.12l69.68-45.34A1.52,1.52,0,0,0,325.62,280.22Z"/><path class="cls-1" d="M71.82,254.74,90.53,243.9a6.23,6.23,0,0,1,6.57.22l48.65,32.5a3.42,3.42,0,0,1,.25,5.51l-14.34,11.56a7.75,7.75,0,0,1-9.25.36L71.75,259.32a2.75,2.75,0,0,1,.07-4.58Z"/></g></g></svg>