<svg xmlns="http://www.w3.org/2000/svg" xmlns:xlink="http://www.w3.org/1999/xlink" viewBox="0 0 1368.47 2227.23"><defs><style>.cls-1{fill:url(#linear-gradient);}.cls-2,.cls-3,.cls-5,.cls-6{opacity:0.4;}.cls-2{fill:url(#linear-gradient-2);}.cls-3{fill:url(#linear-gradient-3);}.cls-4{fill:url(#linear-gradient-4);}.cls-5{fill:url(#linear-gradient-5);}.cls-6{fill:url(#linear-gradient-6);}</style><linearGradient id="linear-gradient" x1="358.74" y1="-204.62" x2="972.78" y2="572.02" gradientUnits="userSpaceOnUse"><stop offset="0" stop-color="#264a74"/><stop offset="1" stop-color="#41a68c"/></linearGradient><linearGradient id="linear-gradient-2" x1="624.84" y1="284.91" x2="598.29" y2="225.37" gradientUnits="userSpaceOnUse"><stop offset="0" stop-color="#40a18b" stop-opacity="0"/><stop offset="1" stop-color="#41a68c"/></linearGradient><linearGradient id="linear-gradient-3" x1="211.33" y1="183.77" x2="305.69" y2="234.4" xlink:href="#linear-gradient-2"/><linearGradient id="linear-gradient-4" x1="118.11" y1="20592.24" x2="694.63" y2="21321.42" gradientTransform="matrix(1, 0, 0, -1, 0, 22837.51)" xlink:href="#linear-gradient"/><linearGradient id="linear-gradient-5" x1="13899.46" y1="9431.04" x2="13671.02" y2="9238.38" gradientTransform="matrix(0, -1, 1, 0, -8945.88, 15498.06)" xlink:href="#linear-gradient-2"/><linearGradient id="linear-gradient-6" x1="13680.74" y1="10011.9" x2="13450.84" y2="9818.01" gradientTransform="matrix(0, -1, 1, 0, -8945.88, 15498.06)" xlink:href="#linear-gradient-2"/></defs><g id="Layer_2" data-name="Layer 2"><g id="Layer_1-2" data-name="Layer 1"><rect class="cls-1" width="1366" height="411.01"/><polygon class="cls-2" points="755.52 135.34 754.63 287.06 628.6 411.01 483.7 411.01 755.52 135.34"/><polygon class="cls-3" points="503.68 0 101.56 411.01 0 411.01 0 318.26 313.1 0 503.68 0"/><polygon class="cls-4" points="1368.47 2227.23 1368.47 1985.63 2.47 828.12 1.47 2227.23 1368.47 2227.23"/><polygon class="cls-5" points="1.98 1435.07 2.88 1218.9 771.68 2004.71 582.39 2016.46 1.98 1435.07"/><polygon class="cls-6" points="571.78 1641.58 572.68 1425.41 1368.47 2227.23 1152.19 2224.98 571.78 1641.58"/></g></g></svg>