<svg xmlns="http://www.w3.org/2000/svg" viewBox="0 0 56.47 55.22"><defs><style>.cls-1{fill:none;stroke:#39ff14;stroke-miterlimit:10;}</style></defs><g id="Layer_2" data-name="Layer 2"><g id="Layer_1-2" data-name="Layer 1"><path class="cls-1" d="M56,54.72H.6A13.87,13.87,0,0,1,9.5,44.07a11.77,11.77,0,0,1,11.61,2.32,20.65,20.65,0,0,1,6.58-5.67,20.88,20.88,0,0,1,11.23-2.46A17.22,17.22,0,0,1,56,54.72Z"/><path class="cls-1" d="M45.46,39.65,50.34,26a4.44,4.44,0,0,0-.72-4.28L33.5,1.62A3.59,3.59,0,0,0,29.37.84a5.59,5.59,0,0,0,0,5.68l3.44,6.07a.69.69,0,0,1-.85,1L13.11,6.26a5.81,5.81,0,0,0-2.71-.12,6.17,6.17,0,0,0-.65.16A2.7,2.7,0,0,0,7.94,9.58v0a3.61,3.61,0,0,0,1.68,2.06l15,5.55"/><path class="cls-1" d="M9.63,11.68A8.09,8.09,0,0,0,5,10.26a8.44,8.44,0,0,0-1.58.19,3.53,3.53,0,0,0-2.2,5.44l0,0a4.72,4.72,0,0,0,3.23,1.81l17.29,6.58"/><path class="cls-1" d="M4.47,17.75A3.17,3.17,0,0,0,2,18.52a3,3,0,0,0-.9,1.73A3.83,3.83,0,0,0,1.89,23,3.72,3.72,0,0,0,4,24.33l4.62,1.74,13.19,5"/><path class="cls-1" d="M8.57,26.07,6,27.68a2.19,2.19,0,0,0-.12,2.58,2.07,2.07,0,0,0,1.4.78l22.34,8.61"/></g></g></svg>