<svg xmlns="http://www.w3.org/2000/svg" viewBox="0 0 432.97 251.55"><defs><style>.cls-1,.cls-2,.cls-3{fill:none;stroke:#39ff14;stroke-miterlimit:10;}.cls-1{stroke-width:2px;}.cls-2{stroke-width:0.75px;}</style></defs><g id="Layer_2" data-name="Layer 2"><g id="Layer_1-2" data-name="Layer 1"><rect class="cls-1" x="41.88" y="1" width="349.16" height="236.13" rx="12"/><path class="cls-1" d="M1,237.13H432a0,0,0,0,1,0,0v0a13.42,13.42,0,0,1-13.42,13.42H14.13A13.13,13.13,0,0,1,1,237.42v-.29a0,0,0,0,1,0,0Z"/><path class="cls-2" d="M252.41,237.13a3.07,3.07,0,0,1,.05.53v1.12a3,3,0,0,1-3,3H188.93a3,3,0,0,1-3-3v-1.12a3.07,3.07,0,0,1,0-.53"/><rect class="cls-3" x="62.4" y="20.87" width="308.13" height="197.68" rx="2.05"/></g></g></svg>