<svg xmlns="http://www.w3.org/2000/svg" viewBox="0 0 67.84 74.83"><defs><style>.cls-1,.cls-3{fill:none;stroke-miterlimit:10;}.cls-1{stroke:#39ff14;stroke-width:1.5px;}.cls-2{fill:#39ff14;stroke:#54f1b5;stroke-linejoin:round;}.cls-2,.cls-3{stroke-linecap:round;}.cls-3{stroke:#43e695;}</style></defs><g id="Layer_2" data-name="Layer 2"><g id="Layer_1-2" data-name="Layer 1"><path class="cls-1" d="M20.84,7.27,3.81,39a1,1,0,0,0,0,1L20.86,71.8a1,1,0,0,0,1.79,0L39.93,40.65a1,1,0,0,0,0-1L22.64,7.27A1,1,0,0,0,20.84,7.27Z"/><path class="cls-1" d="M23.27,8.45l.64-1.19a1,1,0,0,1,1.81,0l.5.94L43,39.66a1,1,0,0,1,0,1L26.25,70.85l-.53,1a1,1,0,0,1-1.79,0l-.63-1.17"/><path class="cls-1" d="M26.22,8.2l.51-.94a1,1,0,0,1,1.8,0l17.29,32.4a1,1,0,0,1,0,1L28.54,71.8a1,1,0,0,1-1.79,0l-.5-.94"/><path class="cls-1" d="M34.46,18.38l6-11.12a1,1,0,0,1,1.81,0l.63,1.18L59.52,39.66a1,1,0,0,1,0,1l-16.62,30-.65,1.17a1,1,0,0,1-1.8,0L34.59,60.88"/><path class="cls-1" d="M42.86,8.45l.64-1.19a1,1,0,0,1,1.81,0l.5.94L62.59,39.66a1,1,0,0,1,0,1L45.84,70.85l-.53,1a1,1,0,0,1-1.79,0l-.63-1.17"/><path class="cls-1" d="M45.81,8.2l.51-.94a1,1,0,0,1,1.8,0l17.29,32.4a1,1,0,0,1,0,1L48.13,71.8a1,1,0,0,1-1.79,0l-.5-.94"/><path class="cls-2" d="M13,68a6.23,6.23,0,0,0-6.23,6.23A6.22,6.22,0,0,0,.5,68a6.21,6.21,0,0,0,6.22-6.22A6.22,6.22,0,0,0,13,68Z"/><path class="cls-2" d="M67.34,6.72A6.23,6.23,0,0,0,61.11,13a6.22,6.22,0,0,0-6.22-6.23A6.21,6.21,0,0,0,61.11.5,6.22,6.22,0,0,0,67.34,6.72Z"/><line class="cls-3" x1="40.61" y1="74.33" x2="63.83" y2="74.33"/><line class="cls-3" x1="21.73" y1="74.33" x2="36.08" y2="74.33"/></g></g></svg>