<svg xmlns="http://www.w3.org/2000/svg" viewBox="0 0 53.9 76.76"><defs><style>.cls-1,.cls-2{fill:none;}.cls-1,.cls-3,.cls-5{stroke:#39ff14;}.cls-1,.cls-2,.cls-3,.cls-4,.cls-5{stroke-miterlimit:10;}.cls-2,.cls-4{stroke:#43e695;}.cls-3,.cls-4,.cls-5{fill:#1d8c7f;}.cls-3{fill-opacity:0.57;}.cls-5{fill-opacity:0.56;}</style></defs><g id="Layer_2" data-name="Layer 2"><g id="Layer_1-2" data-name="Layer 1"><rect class="cls-1" x="0.5" y="67.1" width="52.9" height="6.06"/><line class="cls-1" x1="14.05" y1="76.26" x2="41.15" y2="76.26"/><line class="cls-2" x1="38.82" y1="76.26" x2="38.82" y2="73.17"/><line class="cls-1" x1="16.76" y1="76.26" x2="16.76" y2="73.17"/><path class="cls-1" d="M16.24,42.84s-6.32,10.07-4.64,21"/><path class="cls-1" d="M25.79,24.39S4,36.65,4.63,67.1"/><path class="cls-1" d="M29.27,23.1a2.31,2.31,0,0,1-4,1.61,2.28,2.28,0,0,1-.65-1.61,2.32,2.32,0,0,1,4.64,0Z"/><path class="cls-3" d="M29.14,8.52,25.56,9.79,20.3,11.66l-3.54,1.25L22.38,26.8,33.27,53.69,45.4,48.78ZM27,25.43a2.3,2.3,0,0,1-1.67-.72,2.28,2.28,0,0,1-.65-1.61A2.32,2.32,0,1,1,27,25.43Z"/><path class="cls-4" d="M29.27,23.1a2.31,2.31,0,0,1-4,1.61,2.28,2.28,0,0,1-.65-1.61,2.32,2.32,0,0,1,4.64,0Z"/><polyline class="cls-5" points="25.56 9.79 21.92 0.65 16.76 2.71 20.3 11.65"/></g></g></svg>