<svg xmlns="http://www.w3.org/2000/svg" viewBox="0 0 115.24 81.84"><defs><style>.cls-1{fill:none;stroke:#39ff14;stroke-miterlimit:10;}.cls-2{fill:#39ff14;}</style></defs><g id="Layer_2" data-name="Layer 2"><g id="Layer_1-2" data-name="Layer 1"><circle class="cls-1" cx="15.98" cy="53.64" r="15.48"/><path class="cls-2" d="M19.19,52.64a4.66,4.66,0,0,1,2.13.57,4,4,0,0,1,1.67,2,4.11,4.11,0,0,1-.63,4.36A6.06,6.06,0,0,1,20,61.3l-.06,0L20.62,63l-.65.29-.75-1.74a6,6,0,0,1-3.84.09,4.48,4.48,0,0,1-2.63-2.19l2.06-.89a3.12,3.12,0,0,0,1.48,1.33,3.35,3.35,0,0,0,2.29.16l-2.33-5.41a24.31,24.31,0,0,1-2.91.2,4.34,4.34,0,0,1-2.09-.56A4.38,4.38,0,0,1,9.32,50a4.21,4.21,0,0,1,1.08-2.1,6.62,6.62,0,0,1,2.29-1.56l-.79-1.82.66-.28.79,1.84A5.56,5.56,0,0,1,17,46a4.5,4.5,0,0,1,2.47,2l-2.07.89A3,3,0,0,0,14,47.63l2.24,5.2A24.74,24.74,0,0,1,19.19,52.64Zm-6.14.08a6.5,6.5,0,0,0,2.44.18l-2.16-5a3.31,3.31,0,0,0-1.7,1.45,2.59,2.59,0,0,0,1.42,3.41Zm8,5.53a2.56,2.56,0,0,0,0-2.08,2.33,2.33,0,0,0-1.47-1.43A6.43,6.43,0,0,0,17,54.58l2.25,5.25h0A3,3,0,0,0,21,58.25Z"/><circle class="cls-1" cx="99.26" cy="53.78" r="15.48" transform="translate(-6.51 14.31) rotate(-7.98)"/><path class="cls-2" d="M102.22,55.38a4.54,4.54,0,0,1,1.08,1.92,4,4,0,0,1-.28,2.61,4.33,4.33,0,0,1-1.33,1.77,4.2,4.2,0,0,1-2.22.83,6.17,6.17,0,0,1-2.9-.52l-.07,0-.7,1.71-.66-.27.72-1.75A6.13,6.13,0,0,1,93.1,59a4.45,4.45,0,0,1-.26-3.41l2.06.85a3.26,3.26,0,0,0,.09,2,3.37,3.37,0,0,0,1.49,1.74l2.24-5.45a25.37,25.37,0,0,1-2.18-1.93,4.39,4.39,0,0,1-1.07-1.9,4.39,4.39,0,0,1,1.71-4.37,4.22,4.22,0,0,1,2.25-.7,6.78,6.78,0,0,1,2.72.55l.75-1.84.66.28-.76,1.85a5.51,5.51,0,0,1,2.65,2.51,4.52,4.52,0,0,1,.33,3.14l-2.09-.85a3,3,0,0,0-.17-1.77,3.21,3.21,0,0,0-1.35-1.5L100,53.4A27,27,0,0,1,102.22,55.38Zm-4.36-4.33a6.67,6.67,0,0,0,1.58,1.87l2.09-5.07a3.2,3.2,0,0,0-2.22-.2,2.6,2.6,0,0,0-1.45,3.4Zm1.62,9.55a2.61,2.61,0,0,0,1.46-1.49,2.37,2.37,0,0,0,0-2,6.35,6.35,0,0,0-1.64-1.89l-2.17,5.28h0A3,3,0,0,0,99.48,60.6Z"/><circle class="cls-1" cx="58.42" cy="60.77" r="20.57"/><path class="cls-2" d="M62.68,59.44a6.1,6.1,0,0,1,2.82.77,5.27,5.27,0,0,1,2.23,2.69,5.72,5.72,0,0,1,.43,2.91,5.55,5.55,0,0,1-1.28,2.88A8.16,8.16,0,0,1,63.7,71l-.09,0,1,2.25-.87.38-1-2.31a8,8,0,0,1-5.11.12,6,6,0,0,1-3.49-2.92l2.73-1.17a4.13,4.13,0,0,0,2,1.77,4.47,4.47,0,0,0,3,.21l-3.09-7.2a35.13,35.13,0,0,1-3.86.28,5.76,5.76,0,0,1-2.79-.75A5.84,5.84,0,0,1,49.56,56,5.62,5.62,0,0,1,51,53.18a8.74,8.74,0,0,1,3-2.07l-1-2.42.87-.37,1.05,2.44a7.34,7.34,0,0,1,4.85-.18,6,6,0,0,1,3.28,2.61L60.3,54.38a4,4,0,0,0-1.83-1.48,4.11,4.11,0,0,0-2.68-.11l3,6.91A37.75,37.75,0,0,1,62.68,59.44Zm-8.16.11a8.49,8.49,0,0,0,3.25.24L54.89,53.1A4.28,4.28,0,0,0,52.64,55a3.07,3.07,0,0,0,0,2.71A3,3,0,0,0,54.52,59.55ZM65.08,66.9A3.43,3.43,0,0,0,65,64.13a3.07,3.07,0,0,0-1.94-1.89A8.6,8.6,0,0,0,59.76,62l3,7h0A4,4,0,0,0,65.08,66.9Z"/><line class="cls-1" x1="58.42" x2="58.42" y2="12.39"/><line class="cls-1" x1="51.12" y1="10.06" x2="51.12" y2="22.45"/><line class="cls-1" x1="37.85" y1="1.03" x2="37.85" y2="13.42"/><line class="cls-1" x1="27.9" y1="25.76" x2="27.9" y2="38.15"/><line class="cls-1" x1="40.8" y1="27.82" x2="40.8" y2="40.2"/><line class="cls-1" x1="59.76" y1="22.45" x2="59.76" y2="34.84"/><line class="cls-1" x1="78.98" y1="7.23" x2="78.98" y2="19.61"/><line class="cls-1" x1="101.53" y1="16.26" x2="101.53" y2="28.65"/><line class="cls-1" x1="71.51" y1="24.08" x2="71.51" y2="33.21"/><line class="cls-1" x1="89.32" y1="21.2" x2="89.32" y2="30.33"/><line class="cls-1" x1="78.98" y1="35.64" x2="78.98" y2="44.77"/></g></g></svg>