<svg xmlns="http://www.w3.org/2000/svg" xmlns:xlink="http://www.w3.org/1999/xlink" viewBox="0 0 1368.53 13279.21"><defs><style>.cls-1,.cls-2{opacity:0.47;}.cls-1{fill:url(#linear-gradient);}.cls-2{fill:url(#linear-gradient-2);}.cls-3,.cls-4,.cls-5,.cls-6{opacity:0.8;}.cls-3{fill:url(#linear-gradient-3);}.cls-4{fill:url(#linear-gradient-4);}.cls-5{fill:url(#linear-gradient-5);}.cls-6{fill:url(#linear-gradient-6);}.cls-13,.cls-7,.cls-8{opacity:0.07;}.cls-7{fill:url(#linear-gradient-7);}.cls-8{fill:url(#linear-gradient-8);}.cls-9{fill:url(#linear-gradient-9);}.cls-10{fill:url(#linear-gradient-10);}.cls-11{fill:url(#linear-gradient-11);}.cls-12{opacity:0.11;fill:url(#linear-gradient-12);}.cls-13{fill:url(#linear-gradient-13);}.cls-14,.cls-15,.cls-16{opacity:0.4;}.cls-14{fill:url(#linear-gradient-14);}.cls-15{fill:url(#linear-gradient-15);}.cls-16{fill:url(#linear-gradient-16);}.cls-17{opacity:0.18;fill:url(#linear-gradient-17);}.cls-18{opacity:0.42;fill:url(#linear-gradient-18);}.cls-19{opacity:0.15;fill:url(#linear-gradient-19);}</style><linearGradient id="linear-gradient" x1="764.79" y1="2372.58" x2="888.63" y2="3096.1" gradientUnits="userSpaceOnUse"><stop offset="0" stop-color="#e2f0fa"/><stop offset="1" stop-color="#e7f5fe" stop-opacity="0.2"/></linearGradient><linearGradient id="linear-gradient-2" x1="610.24" y1="6874.11" x2="888.95" y2="7840.3" xlink:href="#linear-gradient"/><linearGradient id="linear-gradient-3" x1="702.76" y1="8888.59" x2="672.57" y2="9929.11" gradientUnits="userSpaceOnUse"><stop offset="0" stop-color="#e2f0fa"/><stop offset="1" stop-color="#e7f5fe" stop-opacity="0.1"/></linearGradient><linearGradient id="linear-gradient-4" x1="702.76" y1="10785.61" x2="672.57" y2="11826.12" xlink:href="#linear-gradient-3"/><linearGradient id="linear-gradient-5" x1="804.63" y1="11020.22" x2="671.47" y2="10320.35" gradientUnits="userSpaceOnUse"><stop offset="0.2" stop-color="#e6f4fd" stop-opacity="0.3"/><stop offset="0.42" stop-color="#e2f0fa"/><stop offset="0.84" stop-color="#e7f5fe" stop-opacity="0.2"/><stop offset="1" stop-color="#e7f5fe" stop-opacity="0.2"/></linearGradient><linearGradient id="linear-gradient-6" x1="672.36" y1="8648.92" x2="799.05" y2="9389.04" gradientTransform="translate(-5)" xlink:href="#linear-gradient"/><linearGradient id="linear-gradient-7" x1="672.26" y1="3958.79" x2="479.49" y2="3796.21" gradientTransform="matrix(-1, 0, 0, 1, 876.66, 0)" gradientUnits="userSpaceOnUse"><stop offset="0" stop-color="#40a18b" stop-opacity="0"/><stop offset="1" stop-color="#41a68c"/></linearGradient><linearGradient id="linear-gradient-8" x1="318.07" y1="4153.7" x2="226.71" y2="4017.44" gradientTransform="matrix(1, 0, 0, 1, 0, 0)" xlink:href="#linear-gradient-7"/><linearGradient id="linear-gradient-9" x1="-18.61" y1="121.65" x2="812.51" y2="1172.86" gradientUnits="userSpaceOnUse"><stop offset="0" stop-color="#264a74"/><stop offset="1" stop-color="#41a68c"/></linearGradient><linearGradient id="linear-gradient-10" x1="80.55" y1="9578.56" x2="727.19" y2="10396.43" gradientTransform="matrix(1, 0, 0, -1, 0, 22837.52)" xlink:href="#linear-gradient-9"/><linearGradient id="linear-gradient-11" x1="337.95" y1="4487" x2="1113.51" y2="5985.24" xlink:href="#linear-gradient-9"/><linearGradient id="linear-gradient-12" x1="1160.95" y1="1965.93" x2="968.18" y2="1803.35" gradientTransform="matrix(1, 0, 0, 1, 0, 0)" xlink:href="#linear-gradient-7"/><linearGradient id="linear-gradient-13" x1="376.99" y1="2538.66" x2="184.22" y2="2376.08" gradientTransform="matrix(1, 0, 0, 1, 0, 0)" xlink:href="#linear-gradient-7"/><linearGradient id="linear-gradient-14" x1="-6716.15" y1="8162.49" x2="-6908.93" y2="7999.91" gradientTransform="matrix(0, 1, 1, 0, -7420.16, 7393.09)" xlink:href="#linear-gradient-7"/><linearGradient id="linear-gradient-15" x1="4373.29" y1="7866.81" x2="4144.85" y2="7674.15" gradientTransform="matrix(0, -1, 1, 0, -7420.16, 17017.71)" xlink:href="#linear-gradient-7"/><linearGradient id="linear-gradient-16" x1="4154.57" y1="8447.67" x2="3924.67" y2="8253.78" gradientTransform="matrix(0, -1, 1, 0, -7420.16, 17017.71)" xlink:href="#linear-gradient-7"/><linearGradient id="linear-gradient-17" x1="1111.87" y1="4356.61" x2="1031.36" y2="4235.84" gradientTransform="matrix(1, 0, 0, 1, 0, 0)" xlink:href="#linear-gradient-7"/><linearGradient id="linear-gradient-18" x1="693.36" y1="5512.71" x2="461.01" y2="5284.51" gradientTransform="matrix(1, 0, 0, 1, 0, 0)" xlink:href="#linear-gradient-7"/><linearGradient id="linear-gradient-19" x1="690.64" y1="6844.68" x2="226.66" y2="6449.54" gradientTransform="matrix(1, 0, 0, 1, 0, 0)" xlink:href="#linear-gradient-7"/></defs><g id="Layer_2" data-name="Layer 2"><g id="Layer_1-2" data-name="Layer 1"><path class="cls-1" d="M1366,1922.29c-6.39,6.52-1163.19,1129.82-1163.19,1129.82H1366Z"/><path class="cls-2" d="M1366.53,6436.74c-5.32,5.81-1029.25,876.88-1365.18,1174.2v211.54H1368.53Z"/><path class="cls-3" d="M2.35,8353.73c6.38,7,1365.18,1155.74,1365.18,1155.74l-1.1,1180.29L2.35,9669.47Z"/><path class="cls-4" d="M2.35,10250.74c6.38,7,1365.18,1155.74,1365.18,1155.74l-1.1,1180.29L2.35,11566.48Z"/><path class="cls-5" d="M1363.43,9694.57c-5.1,5.56-980.68,689.72-1361.08,968.45l-1.11,397.29H1363.43Z"/><path class="cls-6" d="M1367.53,8173.73c-6.39,7-1365.18,1155.74-1365.18,1155.74H1367.53Z"/><polygon class="cls-7" points="0 3509.16 0 3701.55 579.74 4264.25 579.74 4074.96 0 3509.16"/><polygon class="cls-8" points="579.74 3734.1 579.74 3926.49 0 4489.19 0 4299.9 579.74 3734.1"/><polygon class="cls-9" points="1366 0 1366 820.1 0 2018.12 0 0 1366 0"/><polygon class="cls-10" points="1367.94 13279.21 1367.94 12907.86 1.94 11709.84 0.94 13279.21 1367.94 13279.21"/><polygon class="cls-11" points="1367 3653.27 1367 5543.6 1 6657.74 1 4901.29 1367 3653.27"/><polygon class="cls-12" points="1365.35 1516.29 1365.35 1708.68 785.6 2271.39 785.6 2082.1 1365.35 1516.29"/><polygon class="cls-13" points="581.39 2089.03 581.39 2281.42 1.65 2844.13 1.65 2654.84 581.39 2089.03"/><polygon class="cls-14" points="318.58 912.13 510.98 912.9 1075.99 335.4 886.7 334.65 318.58 912.13"/><polygon class="cls-15" points="1.44 12487.05 2.35 12270.88 771.15 13056.69 581.86 13068.44 1.44 12487.05"/><polygon class="cls-16" points="571.25 12693.57 572.15 12477.39 1367.94 13279.21 1151.66 13276.96 571.25 12693.57"/><polygon class="cls-17" points="1367.03 3927 1367.03 4119.39 787.29 4682.1 787.29 4492.81 1367.03 3927"/><polygon class="cls-18" points="1161.4 4798.95 1161.4 5011.34 1 6006.16 0.9 5805.52 1161.4 4798.95"/><polygon class="cls-19" points="325.38 6390.92 159.77 6525.62 710.17 7004.01 865.04 6859 325.38 6390.92"/></g></g></svg>