<?xml version="1.0" encoding="utf-8"?>
<!-- Generator: Adobe Illustrator 25.0.0, SVG Export Plug-In . SVG Version: 6.00 Build 0)  -->
<svg version="1.1" id="Layer_1" xmlns="http://www.w3.org/2000/svg" xmlns:xlink="http://www.w3.org/1999/xlink" x="0px" y="0px"
	 viewBox="0 0 512 512" style="enable-background:new 0 0 512 512;" xml:space="preserve">
<style type="text/css">
	.st0{fill:#4D6FE9;}
	.st1{fill:#FFFFFF;}
	.st2{fill:#6AD9AC;}
	.st3{fill:#8FA0DF;}
	.st4{fill:#72A3F4;}
	.st5{fill:#223FA8;}
	.st6{fill:#4AA0F6;}
	.st7{fill:#15216D;}
	.st8{fill:#415076;}
	.st9{font-family:'MyriadPro-Regular';}
	.st10{font-size:54.2502px;}
</style>
<g>
	<g>
	</g>
	<g>
	</g>
	<g>
	</g>
	<g>
	</g>
	<g>
	</g>
	<g>
	</g>
</g>
<g>
	<g>
		<g>
			<g>
				<path class="st0" d="M181.5,65.8c24.4-9.7,48-14.3,74.2-14.4v44.3c-19.9,0.1-39.3,3.9-57.6,11.2L181.5,65.8z"/>
				<path class="st1" d="M254.7,52.3v42.3c-19.4,0.2-38.2,3.9-56.1,10.9l-15.8-39.2C206.4,57,229.4,52.6,254.7,52.3 M256.7,50.3
					c-27.1,0-51.4,4.7-76.5,14.9l17.3,42.9c18.3-7.4,38.2-11.5,59.2-11.5V50.3L256.7,50.3z"/>
			</g>
		</g>
	</g>
</g>
<g>
	<g>
		<g>
			<g>
				<path class="st2" d="M138.1,89.6c13.9-10,25.7-16.6,41.6-23.1l16.6,41c-11.3,4.7-22.1,10.7-32.1,17.9L138.1,89.6z"/>
				<path class="st1" d="M179.1,67.8L195,107c-10.8,4.5-21.1,10.2-30.6,17l-24.9-34.2C152.7,80.3,164.1,74,179.1,67.8 M180.2,65.2
					c-16.7,6.8-28.9,13.5-43.5,24.1l27.2,37.5c10.3-7.5,21.6-13.8,33.7-18.7L180.2,65.2L180.2,65.2z"/>
			</g>
		</g>
	</g>
</g>
<g>
	<g>
		<g>
			<g>
				<path class="st3" d="M73,167.8c15-31.8,35.2-56.3,63.5-77l26,35.8c-21.1,15.6-38.2,36.2-49.4,59.9L73,167.8z"/>
				<path class="st1" d="M136.3,92.2l24.9,34.2c-20.6,15.4-37.3,35.7-48.5,58.8l-38.3-17.9C89,136.4,108.8,112.5,136.3,92.2
					 M136.7,89.3c-29.2,21.2-49.8,46.2-65,78.9l41.9,19.6c11.4-24.4,28.8-45.4,50.3-61L136.7,89.3L136.7,89.3z"/>
			</g>
		</g>
	</g>
</g>
<g>
	<g>
		<g>
			<g>
				<path class="st4" d="M57,292.4c-8.3-43.5-3.5-82.6,15.1-122.8l40.1,18.7c-9.6,20.8-14.4,43.1-14.4,66.3c0,9.9,0.9,19.7,2.7,29.3
					L57,292.4z"/>
				<path class="st1" d="M72.6,170.9l38.3,17.9c-9.4,20.7-14.1,42.8-14.1,65.8c0,9.6,0.9,19.2,2.5,28.6l-41.5,8.1
					C49.9,248.6,54.6,210.3,72.6,170.9 M71.6,168.3c-19.1,40.9-24,81-15.4,125.3l45.4-8.8c-1.9-9.8-2.9-19.8-2.9-30.1
					c0-23.9,5.3-46.5,14.8-66.8L71.6,168.3L71.6,168.3z"/>
			</g>
		</g>
	</g>
</g>
<g>
	<g>
		<g>
			<g>
				<path class="st5" d="M231,456.2c-88.2-11.2-156.2-74.6-173.6-161.8l43.5-8.4c13.4,67.1,67.6,117.7,135.5,126.3L231,456.2z"/>
				<path class="st1" d="M100.1,287.1c13.7,66.7,67.7,117,135.1,126l-5.2,42c-42.7-5.6-81.4-23.6-111.8-52
					c-30.5-28.4-51.1-65.7-59.7-107.9L100.1,287.1 M101.7,284.7l-45.4,8.8c17.2,88.6,86,152.8,175.6,163.8l5.6-46
					C169.3,403.1,114.6,351.4,101.7,284.7L101.7,284.7z"/>
			</g>
		</g>
	</g>
</g>
<g>
	<g>
		<g>
			<path class="st6" d="M259.4,458c-8.6,0-17.5-0.5-26.4-1.6l5.4-44c6,0.7,12.2,1.1,18.4,1.1c33.5,0,65.5-10.3,92.6-29.8l26,35.8
				C339.5,445.5,301.5,458,259.4,458z"/>
			<path class="st1" d="M349.1,385.1l24.9,34.2c-35.5,25.3-73,37.7-114.6,37.7c-8.2,0-16.7-0.5-25.3-1.5l5.2-42
				c5.7,0.6,11.6,1,17.5,1C290.1,414.5,322,404.4,349.1,385.1 M349.6,382.4c-26.1,19-58.1,30.2-92.8,30.2c-6.5,0-12.9-0.4-19.2-1.2
				l-5.6,46c9.4,1.2,18.6,1.7,27.6,1.7c42.6,0,81.2-12.9,117.4-39.2L349.6,382.4L349.6,382.4z"/>
		</g>
	</g>
</g>
<g>
	<g>
		<g>
			<g>
				<path class="st7" d="M351,382.6c40.5-29.9,64.7-77.7,64.7-128c0-87.3-70.8-158.4-157.9-158.9V51.3
					C369.3,51.9,460,142.8,460,254.6c0,33.5-7.2,64.7-21.5,92.6c-14.1,27.7-34.8,51.6-61.5,71.2L351,382.6z"/>
				<path class="st1" d="M258.7,52.3c26.6,0.3,52.4,5.6,76.7,15.9c24.1,10.2,45.7,24.8,64.3,43.3c18.6,18.6,33.2,40.2,43.3,64.3
					c10.5,24.9,15.9,51.4,15.9,78.7c0,33.4-7.2,64.4-21.3,92.2c-13.9,27.2-34.2,50.9-60.4,70.3l-24.9-34.2
					c40.3-30.1,64.3-77.9,64.3-128.2c0-87.5-70.7-158.8-157.9-159.9V52.3 M256.7,50.3v46.3c87.2,0,157.9,70.7,157.9,157.9
					c0,52.5-25.6,99.1-65.1,127.8l27.2,37.5C431.5,380,461,322.3,461,254.6C461,141.8,369.5,50.3,256.7,50.3L256.7,50.3z"/>
			</g>
		</g>
	</g>
</g>
<g>
	<g>
	</g>
	<g>
	</g>
	<g>
	</g>
	<g>
	</g>
	<g>
	</g>
	<g>
	</g>
	<g>
	</g>
</g>
<g>
	<text transform="matrix(1 0 0 1 196.8408 233.8845)"><tspan x="0" y="0" class="st8 st9 st10">Fund</tspan><tspan x="-56.3" y="65.1" class="st8 st9 st10">Allocation</tspan></text>
</g>
</svg>
