<svg xmlns="http://www.w3.org/2000/svg" viewBox="0 0 129.09 42.29"><defs><style>.cls-1{fill:#fff;}.cls-2{fill:#43e695;}</style></defs><g id="Layer_2" data-name="Layer 2"><g id="Layer_1-2" data-name="Layer 1"><path class="cls-1" d="M58.47,18.85H54.24l-.64,3.36H49.48l4.2-18.56H59l4.32,18.56h-4.2Zm-.62-3L56.34,8l-1.52,7.85Z"/><path class="cls-1" d="M76.32,3.65V22.21H72.59L68.53,11.09V22.21H64.74V3.65H68.5l4,11.09V3.65Z"/><path class="cls-1" d="M86.73,18.85H82.5l-.64,3.36H77.75L82,3.65h5.31l4.31,18.56h-4.2Zm-.61-3L84.6,8l-1.51,7.85Z"/><path class="cls-1" d="M102.48,19.14v3.07H93V3.65h4.15V19.14Z"/><path class="cls-1" d="M111.32,3.65C114,3.65,115,4.88,115,6.86V19c0,2-1,3.24-3.68,3.24h-3.91c-2.65,0-3.7-1.23-3.7-3.24V6.86c0-2,1.05-3.21,3.7-3.21Zm-.49,3.8c0-.53-.21-.73-.76-.73h-1.4c-.59,0-.79.2-.79.73v11c0,.53.2.73.79.73h1.4c.55,0,.76-.2.76-.73Z"/><path class="cls-1" d="M124.3,9.66V7.24c0-.52-.2-.73-.79-.73h-1.19c-.59,0-.79.21-.79.73V18.62c0,.55.2.73.79.73h1.19c.59,0,.79-.18.79-.73V15h-1.46V12.23h5.63V19c0,2-1,3.21-3.67,3.21H121c-2.65,0-3.67-1.23-3.67-3.21V6.86c0-2,1-3.21,3.67-3.21h3.77c2.62,0,3.67,1.23,3.67,3.21v2.8Z"/><path class="cls-1" d="M53.66,27.9V42.29H50.45V27.9Z"/><path class="cls-1" d="M64.75,27.9V42.29h-2.9L58.7,33.67v8.62H55.76V27.9h2.92l3.1,8.6V27.9Z"/><path class="cls-1" d="M72,33V30.69c0-.41-.16-.57-.59-.57h-.93c-.45,0-.61.16-.61.57v8.82c0,.43.16.57.61.57h.93c.43,0,.59-.14.59-.57v-2.2h3.26V39.8c0,1.54-.82,2.49-2.88,2.49H69.5c-2.06,0-2.85-.95-2.85-2.49V30.39c0-1.54.79-2.49,2.85-2.49h2.89c2.06,0,2.88,1,2.88,2.49V33Z"/><path class="cls-1" d="M84.79,39.92v2.37H76.94V27.9h7.67v2.38H80.17v3.51H84v2.37H80.17v3.76Z"/><path class="cls-1" d="M92.12,27.9c2.06,0,2.85,1,2.85,2.49v4.37c0,1.56-.79,2.51-2.85,2.51H89.4v5H86.19V27.9Zm-.38,2.94c0-.4-.16-.56-.59-.56H89.4v4.61h1.75c.43,0,.59-.15.59-.56Z"/><path class="cls-1" d="M104.11,30.28h-2.65v12H98.23v-12H95.6V27.9h8.51Z"/><path class="cls-1" d="M108.52,27.9V42.29h-3.21V27.9Z"/><path class="cls-1" d="M120.06,27.9l-3.17,14.39h-4L109.74,27.9h3.37l1.79,10.68,1.81-10.68Z"/><path class="cls-1" d="M129.09,39.92v2.37h-7.85V27.9h7.67v2.38h-4.44v3.51h3.78v2.37h-3.78v3.76Z"/><path class="cls-2" d="M39.66,40.67c0,.08,0,.11-.1.08l-.13-.09L25.07,30.12q-6.37-4.7-12.77-9.37a1.1,1.1,0,0,1-.35-.42q-1.72-3.82-3.46-7.65L5.05,5.09c-.28-.61-.56-1.23-.83-1.84,0-.06-.11-.15,0-.21s.14,0,.2.08q3.76,2.71,7.52,5.44L22.8,16.44l8.79,6.34a.81.81,0,0,1,.25.35l2.52,5.64L39,39.2l.61,1.35Z"/><path class="cls-2" d="M.05,40.77a.63.63,0,0,1,0-.32V3.22C0,3.12,0,3,.05,3s.17.13.21.23c1.23,2.67,2.44,5.35,3.67,8s2.46,5.34,3.69,8l1.2,2.6a.47.47,0,0,1,0,.46L4.29,31.88l-4,8.52A1,1,0,0,1,.05,40.77Z"/><path class="cls-2" d="M43.39,2.9V40.74c-.12,0-.13-.12-.16-.19C42,38,40.84,35.5,39.65,33c-1.09-2.32-2.19-4.65-3.29-7-.58-1.25-1.17-2.5-1.76-3.75a.47.47,0,0,1,0-.46l2.55-5.52,4.6-10,1.45-3.15A.49.49,0,0,1,43.39,2.9Z"/><path class="cls-2" d="M6.8,36,8,35.15l9-6.23c.37-.26.27-.23.61,0l.81.62c.21.16.21.18,0,.34l-3.67,2.59L3.08,40.69a.1.1,0,0,1-.05,0c-.06,0-.12.12-.18.08s0-.14,0-.21q1-2.09,1.94-4.18,2.49-5.34,5-10.68c.29-.62.58-1.23.86-1.85.07-.16.15-.19.29-.07.32.25.64.5,1,.74a.25.25,0,0,1,.08.37c-.5,1-1,2.09-1.48,3.14-1.21,2.55-2.41,5.1-3.62,7.66A.57.57,0,0,0,6.8,36Z"/><path class="cls-2" d="M16.45,28.11c0,.07-.08.1-.13.13L13.89,30,9.23,33.28c-.08.06-.18.18-.25.13s0-.18.08-.26c1.2-2.51,2.41-5,3.62-7.52.13-.26.13-.26.36-.08L16.31,28C16.37,28,16.43,28,16.45,28.11Z"/><path class="cls-2" d="M32.59,4.83l-1.2.84q-4.49,3.12-9,6.23c-.37.26-.26.23-.6,0L21,11.26c-.22-.16-.22-.18,0-.34l3.67-2.59L36.31.13l.06,0c.06,0,.12-.11.18-.07s0,.14,0,.21q-1,2.09-1.94,4.17L29.63,15.08c-.29.62-.58,1.23-.86,1.85-.07.16-.15.18-.29.07-.32-.25-.65-.51-1-.74a.25.25,0,0,1-.08-.37c.49-1,1-2.09,1.48-3.14,1.2-2.55,2.41-5.1,3.61-7.66A.4.4,0,0,0,32.59,4.83Z"/><path class="cls-2" d="M23,12.71c0-.07.08-.1.13-.13l2.43-1.73,4.66-3.31c.08-.06.18-.18.25-.13s0,.18-.08.26c-1.2,2.51-2.41,5-3.62,7.52-.13.26-.13.26-.36.08l-3.28-2.42S23,12.78,23,12.71Z"/></g></g></svg>