<?xml version="1.0" encoding="utf-8"?>
<!-- Generator: Adobe Illustrator 25.0.0, SVG Export Plug-In . SVG Version: 6.00 Build 0)  -->
<svg version="1.1" id="Layer_1" xmlns="http://www.w3.org/2000/svg" xmlns:xlink="http://www.w3.org/1999/xlink" x="0px" y="0px"
	 viewBox="0 0 512 512" style="enable-background:new 0 0 512 512;" xml:space="preserve">
<style type="text/css">
	.st0{fill:#15216D;}
	.st1{fill:#FFFFFF;}
	.st2{fill:#6AD9AC;}
	.st3{fill:#4D6FE9;}
	.st4{fill:#4AA0F6;}
	.st5{fill:#8FA0DF;}
	.st6{fill:#223FA8;}
	.st7{fill:#415076;}
	.st8{font-family:'MyriadPro-Regular';}
	.st9{font-size:54.2502px;}
</style>
<g>
	<g>
		<g>
			<g>
				<path class="st0" d="M208.1,65.7c16.2-4.2,32.2-6.3,48.9-6.4V106c-12.5,0.1-24.8,1.7-36.8,4.8L208.1,65.7z"/>
				<path class="st1" d="M256,60.3V105c-11.9,0.2-23.6,1.7-35.1,4.6l-11.6-43.2C224.8,62.4,240.1,60.4,256,60.3 M258,58.3
					c-17.4,0-34.2,2.2-51.1,6.7l12.6,47c12.3-3.3,25.2-5,38.5-5V58.3L258,58.3z"/>
			</g>
		</g>
	</g>
</g>
<g>
	<g>
		<g>
			<g>
				<path class="st2" d="M143.4,96.2c20.6-14.8,38.4-23.3,62.8-30l12.1,45.1c-17.1,4.7-33,12.3-47.4,22.7L143.4,96.2z"/>
				<path class="st1" d="M205.5,67.4l11.6,43.2c-16.5,4.6-32,12-46,22l-26.3-36.2C164.7,82.2,182,73.9,205.5,67.4 M206.9,65
					c-25.3,6.8-43.8,15.6-64.9,31l28.6,39.4c14.5-10.6,31-18.6,48.9-23.3L206.9,65L206.9,65z"/>
			</g>
		</g>
	</g>
</g>
<g>
	<g>
		<g>
			<g>
				<path class="st3" d="M85.1,162.6c14.1-26.2,32.7-47.6,56.7-65.2l27.4,37.8c-17.7,13-32.5,30.1-42.9,49.3L85.1,162.6z"/>
				<path class="st1" d="M141.6,98.8l26.3,36.2c-17.2,12.9-31.6,29.5-41.9,48.2l-39.5-21C100.3,136.7,118.3,116,141.6,98.8 M142,96
					c-24.7,17.9-43.9,40.1-58.3,67l43,22.9c10.6-20,25.7-37.2,43.9-50.5L142,96L142,96z"/>
			</g>
		</g>
	</g>
</g>
<g>
	<g>
		<g>
			<g>
				<path class="st4" d="M61.7,254.6c0.1-34,6.7-60.3,22.5-90.3l41.2,21.9c-11,20.9-16.9,44.5-17,68.4H61.7z"/>
				<path class="st1" d="M84.6,165.7l39.5,21c-10.6,20.6-16.4,43.6-16.7,67H62.7C62.9,220.6,69.3,194.9,84.6,165.7 M83.8,163
					c-16.4,30.8-23.1,57.8-23.1,92.7h48.7c0-25.2,6.3-49,17.4-69.8L83.8,163L83.8,163z"/>
			</g>
		</g>
	</g>
</g>
<g>
	<g>
		<g>
			<g>
				<path class="st5" d="M141.8,413.9C116,395,96,371.8,82.4,345.1c-13.6-26.7-20.6-56.5-20.7-88.5h46.7c0.3,47,23,91.5,60.9,119.5
					L141.8,413.9z"/>
				<path class="st1" d="M107.4,257.6c0.6,46.6,23.1,90.7,60.5,118.7l-26.3,36.2c-25.3-18.7-44.9-41.5-58.3-67.8
					c-13.4-26.3-20.3-55.6-20.6-87H107.4 M109.4,255.6H60.6c0,65.4,28.4,121.2,81.4,159.7l28.6-39.4
					C133.5,348.9,109.4,305.1,109.4,255.6L109.4,255.6z"/>
			</g>
		</g>
	</g>
</g>
<g>
	<g>
		<g>
			<g>
				<path class="st6" d="M258,452c-43.2,0-79.6-11.7-114.6-36.9l27.4-37.8c25.5,18.3,55.6,28,87.1,28c82.5,0,149.6-67.1,149.6-149.6
					c0-82.2-66.6-149.1-148.6-149.6V59.3c107.8,0.5,195.4,88.4,195.4,196.3C454.4,363.9,366.3,452,258,452z"/>
				<path class="st1" d="M260,60.3c25.7,0.3,50.6,5.4,74,15.3c23.3,9.8,44.2,23.9,62.1,41.9c17.9,17.9,32,38.8,41.9,62.1
					c10.2,24.1,15.4,49.7,15.4,76s-5.2,52-15.4,76c-9.8,23.3-23.9,44.2-41.9,62.1c-17.9,17.9-38.8,32-62.1,41.9
					C310,445.8,284.4,451,258,451c-42.6,0-78.7-11.5-113.2-36.1l26.3-36.2c25.5,18.1,55.5,27.6,86.9,27.6
					c83.1,0,150.6-67.6,150.6-150.6c0-82.4-66.5-149.6-148.6-150.6V60.3 M258,58.3V107c82.1,0,148.6,66.6,148.6,148.6
					S340.1,404.3,258,404.3c-32.6,0-62.8-10.5-87.4-28.4L142,415.3c35.3,25.6,72.4,37.7,116,37.7c109,0,197.4-88.4,197.4-197.4
					S367,58.3,258,58.3L258,58.3z"/>
			</g>
		</g>
	</g>
</g>
<g>
	<g>
	</g>
	<g>
	</g>
	<g>
	</g>
	<g>
	</g>
	<g>
	</g>
	<g>
	</g>
</g>
<g>
	<text transform="matrix(1 0 0 1 185.6113 233.8845)"><tspan x="0" y="0" class="st7 st8 st9">Token</tspan><tspan x="-45.1" y="65.1" class="st7 st8 st9">Allocation</tspan></text>
</g>
</svg>
